<?xml version="1.0" encoding="UTF-8" standalone="no"?><!DOCTYPE svg PUBLIC "-//W3C//DTD SVG 1.1//EN" "http://www.w3.org/Graphics/SVG/1.1/DTD/svg11.dtd"><svg width="100%" height="100%" viewBox="0 0 5368 2018" version="1.1" xmlns="http://www.w3.org/2000/svg" xmlns:xlink="http://www.w3.org/1999/xlink" xml:space="preserve" xmlns:serif="http://www.serif.com/" style="fill-rule:evenodd;clip-rule:evenodd;stroke-linejoin:round;stroke-miterlimit:2;"><path d="M1015.98,0c44.247,16.887 89.818,25.309 105.688,31.128c119.75,43.907 473.362,87.501 345.828,89.304c-236.153,3.339 -414.357,-21.093 -637.78,-15.486c-18.529,0.465 -44.337,19.964 -48.975,37.909c-12.711,49.183 32.766,67.338 61.746,71.971c191.731,30.648 409.076,77.08 603.155,82.851c135.275,4.022 -232.76,52.412 -273.918,78.572c-14.695,9.34 -26.54,24.315 -33.021,40.476c-33.257,82.93 -62.781,167.661 -85.139,254.168c-5.566,21.537 -3.805,42.844 4.931,63.302c35.892,84.053 103.341,23.609 122.403,-27.552c18.191,-48.823 35.943,-109.267 78.317,-178.107c15.181,-24.663 188.34,-55.2 222.882,-60.309c22.463,-3.322 50.803,31.6 64.097,50.009c1.17,1.62 61.891,70.003 52.26,99.274c-12.014,36.513 -56.734,61.28 -85.38,86.91c-88.698,79.358 -109.989,55.278 -202.312,130.189c-20.494,16.629 -45.715,33.294 -53.26,58.584c-10.939,36.666 11.161,61.991 33.216,69.195c26.672,8.711 56.925,-5.371 75.923,-9.87c57.203,-13.544 109.092,-44.22 165.269,-61.531c30.586,-9.425 62.804,-12.368 94.229,-18.434c126.622,-24.441 162.762,-18.062 275.147,-95.37c41.885,-28.811 86.94,-59.153 112.256,-103.238l3.902,-7.456l0,987.439c0,200.629 -162.885,363.514 -363.514,363.514l-1290.41,0c-200.629,0 -363.515,-162.885 -363.515,-363.514l-0,-1290.41c-0,-200.629 162.886,-363.515 363.515,-363.515l652.463,0Z" style="fill:#fff;"/><path d="M2695.46,1054.55c0,13.672 -3.369,28.467 -10.107,44.385c-6.739,15.918 -17.334,31.543 -31.787,46.875c-14.454,15.332 -32.911,27.783 -55.371,37.353c-22.461,9.571 -48.633,14.356 -78.516,14.356c-22.656,-0 -43.262,-2.149 -61.817,-6.445c-18.554,-4.297 -35.4,-10.987 -50.537,-20.069c-15.136,-9.082 -29.052,-21.045 -41.748,-35.888c-11.328,-13.477 -20.996,-28.565 -29.004,-45.264c-8.007,-16.699 -14.013,-34.522 -18.017,-53.467c-4.004,-18.945 -6.006,-39.062 -6.006,-60.351c-0,-34.571 5.029,-65.528 15.088,-92.872c10.058,-27.343 24.463,-50.732 43.213,-70.166c18.75,-19.433 40.722,-34.228 65.918,-44.384c25.195,-10.157 52.051,-15.235 80.566,-15.235c34.766,0 65.723,6.934 92.871,20.801c27.149,13.867 47.949,31.006 62.403,51.416c14.453,20.41 21.679,39.697 21.679,57.861c0,9.961 -3.515,18.75 -10.547,26.368c-7.031,7.617 -15.527,11.425 -25.488,11.425c-11.133,0 -19.482,-2.636 -25.049,-7.91c-5.566,-5.273 -11.767,-14.355 -18.603,-27.246c-11.328,-21.289 -24.658,-37.207 -39.99,-47.754c-15.333,-10.547 -34.229,-15.82 -56.69,-15.82c-35.742,-0 -64.209,13.574 -85.4,40.723c-21.192,27.148 -31.787,65.722 -31.787,115.722c-0,33.399 4.687,61.182 14.062,83.35c9.375,22.168 22.656,38.72 39.844,49.658c17.187,10.938 37.305,16.406 60.351,16.406c25,0 46.143,-6.201 63.428,-18.603c17.285,-12.403 30.322,-30.615 39.111,-54.639c3.711,-11.328 8.301,-20.557 13.77,-27.685c5.469,-7.129 14.258,-10.694 26.367,-10.694c10.352,0 19.238,3.613 26.66,10.84c7.422,7.227 11.133,16.211 11.133,26.953Z" style="fill:#001524;fill-rule:nonzero;"/><path d="M3067.53,1034.92c0,23.828 -3.71,45.801 -11.132,65.918c-7.422,20.117 -18.164,37.403 -32.227,51.856c-14.062,14.453 -30.859,25.537 -50.391,33.252c-19.531,7.714 -41.503,11.572 -65.918,11.572c-24.218,-0 -45.996,-3.906 -65.332,-11.719c-19.335,-7.812 -36.084,-18.994 -50.244,-33.545c-14.16,-14.551 -24.902,-31.738 -32.226,-51.562c-7.324,-19.825 -10.987,-41.748 -10.987,-65.772c0,-24.219 3.711,-46.387 11.133,-66.504c7.422,-20.117 18.067,-37.304 31.934,-51.562c13.867,-14.258 30.664,-25.244 50.39,-32.959c19.727,-7.715 41.504,-11.572 65.332,-11.572c24.219,-0 46.192,3.906 65.918,11.718c19.727,7.813 36.622,18.946 50.684,33.399c14.063,14.453 24.756,31.64 32.08,51.562c7.324,19.922 10.986,41.895 10.986,65.918Zm-80.273,0c0,-32.617 -7.178,-58.008 -21.533,-76.172c-14.356,-18.164 -33.643,-27.246 -57.862,-27.246c-15.625,0 -29.394,4.053 -41.308,12.158c-11.914,8.106 -21.094,20.069 -27.539,35.889c-6.445,15.82 -9.668,34.277 -9.668,55.371c-0,20.899 3.174,39.16 9.521,54.785c6.348,15.625 15.43,27.588 27.246,35.889c11.817,8.301 25.733,12.451 41.748,12.451c24.219,0 43.506,-9.131 57.862,-27.392c14.355,-18.262 21.533,-43.506 21.533,-75.733Z" style="fill:#001524;fill-rule:nonzero;"/><path d="M3349.66,1151.81l0,-7.91c-10.742,12.304 -21.338,22.314 -31.787,30.029c-10.449,7.715 -21.777,13.574 -33.984,17.578c-12.207,4.004 -25.537,6.006 -39.99,6.006c-19.141,-0 -36.866,-4.053 -53.174,-12.158c-16.309,-8.106 -30.42,-19.678 -42.334,-34.717c-11.914,-15.039 -20.947,-32.715 -27.1,-53.027c-6.152,-20.313 -9.228,-42.286 -9.228,-65.918c-0,-50 12.207,-88.965 36.621,-116.895c24.414,-27.93 56.543,-41.894 96.387,-41.894c23.046,-0 42.48,3.955 58.3,11.865c15.821,7.91 31.25,20.068 46.289,36.474l0,-118.066c0,-16.406 3.272,-28.809 9.815,-37.207c6.543,-8.399 15.869,-12.598 27.978,-12.598c12.11,0 21.436,3.858 27.979,11.573c6.543,7.714 9.814,19.091 9.814,34.13l0,352.735c0,15.234 -3.515,26.66 -10.547,34.277c-7.031,7.617 -16.113,11.426 -27.246,11.426c-10.937,-0 -19.97,-3.955 -27.099,-11.865c-7.129,-7.911 -10.694,-19.19 -10.694,-33.838Zm-157.324,-117.481c0,21.68 3.369,40.137 10.108,55.371c6.738,15.235 15.966,26.709 27.685,34.424c11.719,7.715 24.512,11.572 38.379,11.572c14.063,0 26.904,-3.662 38.525,-10.986c11.621,-7.324 20.899,-18.555 27.832,-33.691c6.934,-15.137 10.401,-34.033 10.401,-56.69c-0,-21.289 -3.467,-39.599 -10.401,-54.931c-6.933,-15.332 -16.308,-27.051 -28.125,-35.157c-11.816,-8.105 -24.755,-12.158 -38.818,-12.158c-14.648,0 -27.734,4.151 -39.258,12.451c-11.523,8.301 -20.459,20.215 -26.806,35.743c-6.348,15.527 -9.522,33.544 -9.522,54.052Z" style="fill:#001524;fill-rule:nonzero;"/><path d="M3728.76,1054.55l-156.445,0c0.195,18.164 3.857,34.18 10.986,48.047c7.129,13.867 16.601,24.316 28.418,31.348c11.816,7.031 24.853,10.547 39.111,10.547c9.571,-0 18.311,-1.124 26.221,-3.37c7.91,-2.246 15.576,-5.761 22.998,-10.546c7.422,-4.786 14.258,-9.913 20.508,-15.381c6.25,-5.469 14.355,-12.891 24.316,-22.266c4.102,-3.516 9.961,-5.273 17.578,-5.273c8.203,-0 14.844,2.246 19.922,6.738c5.078,4.492 7.617,10.84 7.617,19.043c0,7.226 -2.832,15.674 -8.496,25.342c-5.664,9.668 -14.209,18.945 -25.634,27.832c-11.426,8.886 -25.782,16.259 -43.067,22.119c-17.285,5.859 -37.158,8.789 -59.619,8.789c-51.367,-0 -91.309,-14.649 -119.824,-43.945c-28.516,-29.297 -42.774,-69.043 -42.774,-119.239c0,-23.633 3.516,-45.556 10.547,-65.771c7.031,-20.215 17.285,-37.549 30.762,-52.002c13.476,-14.453 30.078,-25.537 49.805,-33.252c19.726,-7.715 41.601,-11.572 65.625,-11.572c31.25,-0 58.056,6.591 80.42,19.775c22.363,13.184 39.111,30.225 50.244,51.123c11.132,20.899 16.699,42.188 16.699,63.867c-0,20.117 -5.762,33.155 -17.285,39.112c-11.524,5.957 -27.735,8.935 -48.633,8.935Zm-156.445,-45.41l145.019,-0c-1.953,-27.344 -9.326,-47.803 -22.119,-61.377c-12.793,-13.574 -29.639,-20.361 -50.537,-20.361c-19.922,-0 -36.279,6.884 -49.072,20.654c-12.793,13.77 -20.557,34.131 -23.291,61.084Z" style="fill:#001524;fill-rule:nonzero;"/><path d="M3963.43,1144.49l-0,-136.231l-104.883,-162.598c-9.18,-14.648 -15.674,-26.074 -19.482,-34.277c-3.809,-8.203 -5.713,-15.332 -5.713,-21.387c-0,-9.961 3.857,-18.554 11.572,-25.781c7.715,-7.226 17.236,-10.84 28.564,-10.84c11.915,0 20.948,3.369 27.1,10.108c6.152,6.738 15.381,20.166 27.686,40.283l80.273,130.371l81.152,-130.371c4.883,-8.008 8.985,-14.746 12.305,-20.215c3.32,-5.469 6.983,-10.596 10.986,-15.381c4.004,-4.785 8.448,-8.447 13.331,-10.986c4.882,-2.539 10.839,-3.809 17.871,-3.809c10.937,0 20.068,3.565 27.392,10.694c7.324,7.129 10.987,15.38 10.987,24.755c-0,7.618 -1.856,15.235 -5.567,22.852c-3.711,7.617 -10.058,18.164 -19.043,31.641l-107.519,164.941l-0,136.231c-0,17.773 -4.102,31.054 -12.305,39.843c-8.203,8.789 -18.652,13.184 -31.348,13.184c-12.89,-0 -23.34,-4.346 -31.347,-13.037c-8.008,-8.692 -12.012,-22.022 -12.012,-39.99Z" style="fill:#001524;fill-rule:nonzero;"/><path d="M4498.69,1034.92c-0,23.828 -3.711,45.801 -11.133,65.918c-7.422,20.117 -18.164,37.403 -32.227,51.856c-14.062,14.453 -30.859,25.537 -50.39,33.252c-19.531,7.714 -41.504,11.572 -65.918,11.572c-24.219,-0 -45.996,-3.906 -65.332,-11.719c-19.336,-7.812 -36.084,-18.994 -50.244,-33.545c-14.161,-14.551 -24.903,-31.738 -32.227,-51.562c-7.324,-19.825 -10.986,-41.748 -10.986,-65.772c-0,-24.219 3.711,-46.387 11.133,-66.504c7.421,-20.117 18.066,-37.304 31.933,-51.562c13.867,-14.258 30.664,-25.244 50.391,-32.959c19.726,-7.715 41.504,-11.572 65.332,-11.572c24.219,-0 46.191,3.906 65.918,11.718c19.726,7.813 36.621,18.946 50.683,33.399c14.063,14.453 24.756,31.64 32.08,51.562c7.325,19.922 10.987,41.895 10.987,65.918Zm-80.274,0c0,-32.617 -7.177,-58.008 -21.533,-76.172c-14.355,-18.164 -33.642,-27.246 -57.861,-27.246c-15.625,0 -29.395,4.053 -41.309,12.158c-11.914,8.106 -21.094,20.069 -27.539,35.889c-6.445,15.82 -9.668,34.277 -9.668,55.371c0,20.899 3.174,39.16 9.522,54.785c6.347,15.625 15.429,27.588 27.246,35.889c11.816,8.301 25.732,12.451 41.748,12.451c24.219,0 43.506,-9.131 57.861,-27.392c14.356,-18.262 21.533,-43.506 21.533,-75.733Z" style="fill:#001524;fill-rule:nonzero;"/><path d="M4641.65,917.729l-0,231.152c-0,16.016 -3.809,28.125 -11.426,36.328c-7.617,8.203 -17.285,12.305 -29.004,12.305c-11.719,-0 -21.24,-4.199 -28.565,-12.598c-7.324,-8.398 -10.986,-20.41 -10.986,-36.035l0,-228.809c0,-15.82 3.662,-27.734 10.986,-35.742c7.325,-8.008 16.846,-12.011 28.565,-12.011c11.719,-0 21.387,4.003 29.004,12.011c7.617,8.008 11.426,19.141 11.426,33.399Zm-39.551,-82.617c-11.133,-0 -20.655,-3.418 -28.565,-10.254c-7.91,-6.836 -11.865,-16.504 -11.865,-29.004c0,-11.328 4.053,-20.655 12.158,-27.979c8.106,-7.324 17.53,-10.986 28.272,-10.986c10.351,-0 19.531,3.32 27.539,9.961c8.008,6.64 12.012,16.308 12.012,29.004c-0,12.304 -3.907,21.924 -11.719,28.857c-7.813,6.934 -17.09,10.401 -27.832,10.401Z" style="fill:#001524;fill-rule:nonzero;"/><path d="M4796.93,916.557l-0,9.668c14.062,-18.555 29.443,-32.178 46.143,-40.869c16.699,-8.692 35.888,-13.037 57.568,-13.037c21.094,-0 39.941,4.589 56.543,13.769c16.601,9.18 29.004,22.168 37.207,38.965c5.273,9.766 8.691,20.312 10.254,31.641c1.562,11.328 2.344,25.781 2.344,43.359l-0,148.828c-0,16.016 -3.663,28.125 -10.987,36.328c-7.324,8.203 -16.845,12.305 -28.564,12.305c-11.914,-0 -21.582,-4.199 -29.004,-12.598c-7.422,-8.398 -11.133,-20.41 -11.133,-36.035l0,-133.301c0,-26.367 -3.662,-46.533 -10.986,-60.498c-7.324,-13.965 -21.924,-20.947 -43.799,-20.947c-14.258,-0 -27.246,4.248 -38.965,12.744c-11.719,8.496 -20.312,20.166 -25.781,35.01c-3.906,11.914 -5.86,34.18 -5.86,66.797l0,100.195c0,16.211 -3.759,28.369 -11.279,36.475c-7.519,8.105 -17.236,12.158 -29.15,12.158c-11.524,-0 -20.996,-4.199 -28.418,-12.598c-7.422,-8.398 -11.133,-20.41 -11.133,-36.035l-0,-231.152c-0,-15.235 3.32,-26.612 9.961,-34.131c6.641,-7.52 15.723,-11.279 27.246,-11.279c7.031,-0 13.379,1.66 19.043,4.98c5.664,3.32 10.205,8.301 13.623,14.941c3.418,6.641 5.127,14.747 5.127,24.317Z" style="fill:#001524;fill-rule:nonzero;"/><path d="M5285.89,1160.89l-70.606,-116.016l-43.359,41.016l-0,63.574c-0,15.43 -4.053,27.295 -12.158,35.596c-8.106,8.3 -17.432,12.451 -27.979,12.451c-12.304,-0 -21.972,-4.102 -29.004,-12.305c-7.031,-8.203 -10.547,-20.312 -10.547,-36.328l0,-341.016c0,-17.773 3.418,-31.298 10.254,-40.576c6.836,-9.277 16.602,-13.916 29.297,-13.916c12.305,0 22.071,4.199 29.297,12.598c7.227,8.398 10.84,20.801 10.84,37.207l-0,193.945l89.941,-94.336c11.133,-11.718 19.629,-19.726 25.489,-24.023c5.859,-4.297 12.988,-6.445 21.386,-6.445c9.961,-0 18.262,3.173 24.903,9.521c6.64,6.348 9.961,14.307 9.961,23.877c-0,11.719 -10.84,27.344 -32.52,46.875l-42.48,38.965l82.031,128.906c6.055,9.57 10.4,16.846 13.037,21.826c2.637,4.981 3.955,9.717 3.955,14.209c0,12.696 -3.467,22.705 -10.4,30.03c-6.934,7.324 -16.065,10.986 -27.393,10.986c-9.765,-0 -17.285,-2.637 -22.558,-7.91c-5.274,-5.274 -12.403,-14.844 -21.387,-28.711Z" style="fill:#001524;fill-rule:nonzero;"/></svg>