<?xml version="1.0" encoding="UTF-8" standalone="no"?><!DOCTYPE svg PUBLIC "-//W3C//DTD SVG 1.1//EN" "http://www.w3.org/Graphics/SVG/1.1/DTD/svg11.dtd"><svg width="100%" height="100%" viewBox="0 0 2018 2018" version="1.1" xmlns="http://www.w3.org/2000/svg" xmlns:xlink="http://www.w3.org/1999/xlink" xml:space="preserve" xmlns:serif="http://www.serif.com/" style="fill-rule:evenodd;clip-rule:evenodd;stroke-linejoin:round;stroke-miterlimit:2;"><g><path d="M1015.98,0c44.247,16.887 89.818,25.309 105.688,31.128c119.75,43.907 473.362,87.501 345.828,89.304c-236.153,3.339 -414.357,-21.093 -637.78,-15.486c-18.529,0.465 -44.337,19.964 -48.975,37.909c-12.711,49.183 32.766,67.338 61.746,71.971c191.731,30.648 409.076,77.08 603.155,82.851c135.275,4.022 -232.76,52.412 -273.918,78.572c-14.695,9.34 -26.54,24.315 -33.021,40.476c-33.257,82.93 -62.781,167.661 -85.139,254.168c-5.566,21.537 -3.805,42.844 4.931,63.302c35.892,84.053 103.341,23.609 122.403,-27.552c18.191,-48.823 35.943,-109.267 78.317,-178.107c15.181,-24.663 188.34,-55.2 222.882,-60.309c22.463,-3.322 50.803,31.6 64.097,50.009c1.17,1.62 61.891,70.003 52.26,99.274c-12.014,36.513 -56.734,61.28 -85.38,86.91c-88.698,79.358 -109.989,55.278 -202.312,130.189c-20.494,16.629 -45.715,33.294 -53.26,58.584c-10.939,36.666 11.161,61.991 33.216,69.195c26.672,8.711 56.925,-5.371 75.923,-9.87c57.203,-13.544 109.092,-44.22 165.269,-61.531c30.586,-9.425 62.804,-12.368 94.229,-18.434c126.622,-24.441 162.762,-18.062 275.147,-95.37c41.885,-28.811 86.94,-59.153 112.256,-103.238l3.902,-7.456l0,987.439c0,200.629 -162.885,363.514 -363.514,363.514l-1290.41,0c-200.629,0 -363.515,-162.885 -363.515,-363.514l-0,-1290.41c-0,-200.629 162.886,-363.515 363.515,-363.515l652.463,0Z" style="fill:#77ff94;"/><path d="M586.535,1744.77l-71.387,72.042l-440.109,-367.413l440.109,-367.413l71.387,72.697l-356.934,293.406l356.934,296.681Z" style="fill:#001524;fill-rule:nonzero;"/><path d="M1168.29,880.927l-449.279,1066.22l-108.717,-0l449.278,-1066.22l108.718,0Z" style="fill:#001524;fill-rule:nonzero;"/><path d="M1221.52,1154.69l70.732,-72.697l440.109,367.413l-440.109,367.413l-70.732,-72.042l356.934,-294.061l-356.934,-296.026Z" style="fill:#001524;fill-rule:nonzero;"/><path d="M1015.98,0l637.95,0c200.629,0 363.514,162.886 363.514,363.515l0,302.974l-3.902,7.456c-25.316,44.085 -70.371,74.427 -112.256,103.238c-112.385,77.308 -148.525,70.929 -275.147,95.37c-31.425,6.066 -63.643,9.009 -94.229,18.434c-56.177,17.311 -108.066,47.987 -165.269,61.531c-18.998,4.499 -49.251,18.581 -75.923,9.87c-22.055,-7.204 -44.155,-32.529 -33.216,-69.195c7.545,-25.29 32.766,-41.955 53.26,-58.584c92.323,-74.911 113.614,-50.831 202.312,-130.189c28.646,-25.63 73.366,-50.397 85.38,-86.91c9.631,-29.271 -51.09,-97.654 -52.26,-99.274c-13.294,-18.409 -41.634,-53.331 -64.097,-50.009c-34.542,5.109 -207.701,35.646 -222.882,60.309c-42.374,68.84 -60.126,129.284 -78.317,178.107c-19.062,51.161 -86.511,111.605 -122.403,27.552c-8.736,-20.458 -10.497,-41.765 -4.931,-63.302c22.358,-86.507 51.882,-171.238 85.139,-254.168c6.481,-16.161 18.326,-31.136 33.021,-40.476c41.158,-26.16 409.193,-74.55 273.918,-78.572c-194.079,-5.771 -411.424,-52.203 -603.155,-82.851c-28.98,-4.633 -74.457,-22.788 -61.746,-71.971c4.638,-17.945 30.446,-37.444 48.975,-37.909c223.423,-5.607 401.627,18.825 637.78,15.486c127.534,-1.803 -226.078,-45.397 -345.828,-89.304c-15.87,-5.819 -61.441,-14.241 -105.688,-31.128Z" style="fill:#001524;"/></g></svg>